M48
; DRILL file {KiCad 8.0.3} date 2026-07-12T13:51:23+0200
; FORMAT={-:-/ absolute / inch / decimal}
; #@! TF.CreationDate,2026-07-12T13:51:23+02:00
; #@! TF.GenerationSoftware,Kicad,Pcbnew,8.0.3
; #@! TF.FileFunction,Plated,1,2,PTH
FMAT,2
INCH
; #@! TA.AperFunction,Plated,PTH,ComponentDrill
T1C0.0079
; #@! TA.AperFunction,Plated,PTH,ViaDrill
T2C0.0118
; #@! TA.AperFunction,Plated,PTH,ComponentDrill
T3C0.0118
; #@! TA.AperFunction,Plated,PTH,ComponentDrill
T4C0.0197
; #@! TA.AperFunction,Plated,PTH,ComponentDrill
T5C0.0374
; #@! TA.AperFunction,Plated,PTH,ComponentDrill
T6C0.0394
%
G90
G05
T1
X9.3173Y-1.6791
X9.3173Y-1.7224
X9.339Y-1.6575
X9.339Y-1.7008
X9.339Y-1.7441
X9.3606Y-1.6791
X9.3606Y-1.7224
X9.3823Y-1.6575
X9.3823Y-1.7008
X9.3823Y-1.7441
X9.4039Y-1.6791
X9.4039Y-1.7224
T2
X7.9193Y-1.372
X8.187Y-1.6693
X8.2854Y-1.2539
X8.3661Y-1.2323
X8.6457Y-1.7598
X9.0689Y-1.9291
X9.5906Y-1.5807
X9.8012Y-1.8701
X9.8878Y-1.9862
X9.9859Y-1.3569
X10.3445Y-1.1988
X10.3583Y-1.7205
X10.3976Y-2.0591
X10.5157Y-1.1654
T3
X10.0236Y-1.0551
X10.0236Y-1.1339
X10.1811Y-1.0551
X10.1811Y-1.1339
T5
X7.7126Y-1.8012
X7.7126Y-1.8996
X7.7126Y-1.998
X7.752Y-1.3445
X7.752Y-1.4429
X7.752Y-1.5413
X9.8839Y-2.1398
X9.9823Y-2.1398
X10.0807Y-2.1398
T6
X8.0236Y-2.0404
X8.122Y-2.0404
X8.4055Y-2.0502
X8.5039Y-2.0502
T4
G00X9.9319Y-1.0953
M15
G01X9.9319Y-1.0638
M16
G05
G00X9.9319Y-1.2665
M15
G01X9.9319Y-1.2232
M16
G05
G00X10.2728Y-1.0953
M15
G01X10.2728Y-1.0638
M16
G05
G00X10.2728Y-1.2665
M15
G01X10.2728Y-1.2232
M16
G05
M30
