%TF.GenerationSoftware,KiCad,Pcbnew,8.0.3*%
%TF.CreationDate,2026-07-12T13:51:11+02:00*%
%TF.ProjectId,tube,74756265-2e6b-4696-9361-645f70636258,rev?*%
%TF.SameCoordinates,Original*%
%TF.FileFunction,Soldermask,Top*%
%TF.FilePolarity,Negative*%
%FSLAX46Y46*%
G04 Gerber Fmt 4.6, Leading zero omitted, Abs format (unit mm)*
G04 Created by KiCad (PCBNEW 8.0.3) date 2026-07-12 13:51:11*
%MOMM*%
%LPD*%
G01*
G04 APERTURE LIST*
G04 Aperture macros list*
%AMRoundRect*
0 Rectangle with rounded corners*
0 $1 Rounding radius*
0 $2 $3 $4 $5 $6 $7 $8 $9 X,Y pos of 4 corners*
0 Add a 4 corners polygon primitive as box body*
4,1,4,$2,$3,$4,$5,$6,$7,$8,$9,$2,$3,0*
0 Add four circle primitives for the rounded corners*
1,1,$1+$1,$2,$3*
1,1,$1+$1,$4,$5*
1,1,$1+$1,$6,$7*
1,1,$1+$1,$8,$9*
0 Add four rect primitives between the rounded corners*
20,1,$1+$1,$2,$3,$4,$5,0*
20,1,$1+$1,$4,$5,$6,$7,0*
20,1,$1+$1,$6,$7,$8,$9,0*
20,1,$1+$1,$8,$9,$2,$3,0*%
G04 Aperture macros list end*
%ADD10RoundRect,0.150000X-0.675000X-0.150000X0.675000X-0.150000X0.675000X0.150000X-0.675000X0.150000X0*%
%ADD11RoundRect,0.150000X0.675000X0.150000X-0.675000X0.150000X-0.675000X-0.150000X0.675000X-0.150000X0*%
%ADD12R,1.500000X0.900000*%
%ADD13C,0.600000*%
%ADD14R,2.900000X2.900000*%
%ADD15RoundRect,0.250000X0.600000X0.250000X-0.600000X0.250000X-0.600000X-0.250000X0.600000X-0.250000X0*%
%ADD16RoundRect,0.100000X0.130000X0.100000X-0.130000X0.100000X-0.130000X-0.100000X0.130000X-0.100000X0*%
%ADD17RoundRect,0.100000X-0.130000X-0.100000X0.130000X-0.100000X0.130000X0.100000X-0.130000X0.100000X0*%
%ADD18RoundRect,0.100000X0.100000X-0.130000X0.100000X0.130000X-0.100000X0.130000X-0.100000X-0.130000X0*%
%ADD19RoundRect,0.100000X-0.100000X0.130000X-0.100000X-0.130000X0.100000X-0.130000X0.100000X0.130000X0*%
%ADD20O,1.300000X2.100000*%
%ADD21O,1.300000X2.300000*%
%ADD22C,0.500000*%
%ADD23RoundRect,0.500000X2.000000X1.000000X-2.000000X1.000000X-2.000000X-1.000000X2.000000X-1.000000X0*%
%ADD24R,0.500000X1.400000*%
%ADD25R,0.300000X1.400000*%
%ADD26RoundRect,0.250000X-0.725000X0.600000X-0.725000X-0.600000X0.725000X-0.600000X0.725000X0.600000X0*%
%ADD27O,1.950000X1.700000*%
%ADD28RoundRect,0.250000X-0.600000X-0.750000X0.600000X-0.750000X0.600000X0.750000X-0.600000X0.750000X0*%
%ADD29O,1.700000X2.000000*%
%ADD30RoundRect,0.250000X-0.600000X-0.725000X0.600000X-0.725000X0.600000X0.725000X-0.600000X0.725000X0*%
%ADD31O,1.700000X1.950000*%
%ADD32RoundRect,0.250000X0.312500X1.450000X-0.312500X1.450000X-0.312500X-1.450000X0.312500X-1.450000X0*%
%ADD33RoundRect,0.239000X0.239000X0.274000X-0.239000X0.274000X-0.239000X-0.274000X0.239000X-0.274000X0*%
%ADD34RoundRect,0.258261X1.029739X0.929739X-1.029739X0.929739X-1.029739X-0.929739X1.029739X-0.929739X0*%
%ADD35RoundRect,0.250000X0.750000X-0.650000X0.750000X0.650000X-0.750000X0.650000X-0.750000X-0.650000X0*%
%ADD36RoundRect,0.244000X-0.244000X-0.269000X0.244000X-0.269000X0.244000X0.269000X-0.244000X0.269000X0*%
%ADD37RoundRect,0.250000X0.550000X-1.500000X0.550000X1.500000X-0.550000X1.500000X-0.550000X-1.500000X0*%
%ADD38RoundRect,0.244000X0.269000X-0.244000X0.269000X0.244000X-0.269000X0.244000X-0.269000X-0.244000X0*%
%ADD39RoundRect,0.244000X0.244000X0.269000X-0.244000X0.269000X-0.244000X-0.269000X0.244000X-0.269000X0*%
%ADD40RoundRect,0.250000X-1.500000X-0.550000X1.500000X-0.550000X1.500000X0.550000X-1.500000X0.550000X0*%
%ADD41R,1.500000X2.200000*%
%ADD42RoundRect,0.250000X-0.550000X1.500000X-0.550000X-1.500000X0.550000X-1.500000X0.550000X1.500000X0*%
%ADD43RoundRect,0.250000X0.725000X-0.600000X0.725000X0.600000X-0.725000X0.600000X-0.725000X-0.600000X0*%
%ADD44RoundRect,0.122500X0.457500X-0.122500X0.457500X0.122500X-0.457500X0.122500X-0.457500X-0.122500X0*%
%ADD45RoundRect,0.122500X0.467500X-0.122500X0.467500X0.122500X-0.467500X0.122500X-0.467500X-0.122500X0*%
G04 APERTURE END LIST*
D10*
%TO.C,U3*%
X256530000Y-45390000D03*
X256530000Y-46660000D03*
X256530000Y-47940000D03*
X256530000Y-49210000D03*
X261770000Y-49210000D03*
X261770000Y-47940000D03*
X261770000Y-46660000D03*
X261770000Y-45390000D03*
%TD*%
D11*
%TO.C,U2*%
X207470000Y-39910000D03*
X207470000Y-38640000D03*
X207470000Y-37360000D03*
X207470000Y-36090000D03*
X202230000Y-36090000D03*
X202230000Y-37360000D03*
X202230000Y-38640000D03*
X202230000Y-39910000D03*
%TD*%
D12*
%TO.C,U1*%
X228050000Y-37000000D03*
X228050000Y-38500000D03*
X228050000Y-40000000D03*
X228050000Y-41500000D03*
X228050000Y-43000000D03*
X228050000Y-44500000D03*
X228050000Y-46000000D03*
X228050000Y-47500000D03*
X228050000Y-49000000D03*
X245550000Y-49000000D03*
X245550000Y-47500000D03*
X245550000Y-46000000D03*
X245550000Y-44500000D03*
X245550000Y-43000000D03*
X245550000Y-41500000D03*
X245550000Y-40000000D03*
X245550000Y-38500000D03*
X245550000Y-37000000D03*
D13*
X236660000Y-42650000D03*
X236660000Y-43750000D03*
X237210000Y-42100000D03*
X237210000Y-43200000D03*
X237210000Y-44300000D03*
X237760000Y-42650000D03*
D14*
X237760000Y-43200000D03*
D13*
X237760000Y-43750000D03*
X238310000Y-42100000D03*
X238310000Y-43200000D03*
X238310000Y-44300000D03*
X238860000Y-42650000D03*
X238860000Y-43750000D03*
%TD*%
D15*
%TO.C,SW3*%
X217650000Y-41050000D03*
X224250000Y-41050000D03*
X217650000Y-44750000D03*
X224250000Y-44750000D03*
%TD*%
D16*
%TO.C,R7*%
X258870000Y-50750000D03*
X258230000Y-50750000D03*
%TD*%
D17*
%TO.C,R6*%
X260780000Y-52050000D03*
X261420000Y-52050000D03*
%TD*%
%TO.C,R5*%
X260730000Y-50700000D03*
X261370000Y-50700000D03*
%TD*%
D18*
%TO.C,R4*%
X257850000Y-34620000D03*
X257850000Y-33980000D03*
%TD*%
D19*
%TO.C,R3*%
X210150000Y-28380000D03*
X210150000Y-29020000D03*
%TD*%
D18*
%TO.C,R2*%
X254850000Y-34520000D03*
X254850000Y-33880000D03*
%TD*%
D19*
%TO.C,R1*%
X254050000Y-47030000D03*
X254050000Y-47670000D03*
%TD*%
D20*
%TO.C,J6*%
X252270000Y-27420000D03*
D21*
X252270000Y-31620000D03*
D22*
X254600000Y-26800000D03*
X254600000Y-28800000D03*
D23*
X256600000Y-27800000D03*
D22*
X258600000Y-26800000D03*
X258600000Y-28800000D03*
D20*
X260930000Y-27420000D03*
D21*
X260930000Y-31620000D03*
D24*
X259800000Y-32300000D03*
X259000000Y-32300000D03*
D25*
X258350000Y-32300000D03*
X257350000Y-32300000D03*
X255850000Y-32300000D03*
X254850000Y-32300000D03*
D24*
X253400000Y-32300000D03*
X254200000Y-32300000D03*
D25*
X255350000Y-32300000D03*
X256350000Y-32300000D03*
X256850000Y-32300000D03*
X257850000Y-32300000D03*
D13*
X253710000Y-31100000D03*
X259490000Y-31100000D03*
%TD*%
D26*
%TO.C,J5*%
X196900000Y-34150000D03*
D27*
X196900000Y-36650000D03*
X196900000Y-39150000D03*
%TD*%
D28*
%TO.C,J3*%
X203800000Y-51825000D03*
D29*
X206300000Y-51825000D03*
%TD*%
D28*
%TO.C,J2*%
X213500000Y-52075000D03*
D29*
X216000000Y-52075000D03*
%TD*%
D30*
%TO.C,J1*%
X251050000Y-54350000D03*
D31*
X253550000Y-54350000D03*
X256050000Y-54350000D03*
%TD*%
D32*
%TO.C,F1*%
X214637500Y-46875000D03*
X210362500Y-46875000D03*
%TD*%
D33*
%TO.C,D3*%
X211840000Y-27000000D03*
X210260000Y-27000000D03*
%TD*%
D34*
%TO.C,D2*%
X207550000Y-46475000D03*
X203250000Y-46475000D03*
%TD*%
D35*
%TO.C,D1*%
X258900000Y-37020000D03*
X258900000Y-41280000D03*
%TD*%
D36*
%TO.C,C10*%
X249370000Y-45100000D03*
X250930000Y-45100000D03*
%TD*%
D37*
%TO.C,C9*%
X218550000Y-36000000D03*
X218550000Y-30600000D03*
%TD*%
D38*
%TO.C,C8*%
X263900000Y-29230000D03*
X263900000Y-27670000D03*
%TD*%
%TO.C,C7*%
X263900000Y-32530000D03*
X263900000Y-30970000D03*
%TD*%
D37*
%TO.C,C6*%
X204500000Y-32850000D03*
X204500000Y-27450000D03*
%TD*%
D39*
%TO.C,C5*%
X254530000Y-49250000D03*
X252970000Y-49250000D03*
%TD*%
%TO.C,C4*%
X255270000Y-50750000D03*
X256830000Y-50750000D03*
%TD*%
D40*
%TO.C,C2*%
X249600000Y-40550000D03*
X255000000Y-40550000D03*
%TD*%
D36*
%TO.C,C1*%
X258120000Y-43600000D03*
X259680000Y-43600000D03*
%TD*%
D41*
%TO.C,L1*%
X263050000Y-38850000D03*
X269450000Y-38850000D03*
%TD*%
D42*
%TO.C,C3*%
X267350000Y-45050000D03*
X267350000Y-50450000D03*
%TD*%
D27*
%TO.C,J7*%
X195900000Y-45750000D03*
X195900000Y-48250000D03*
D43*
X195900000Y-50750000D03*
%TD*%
D15*
%TO.C,SW2*%
X217050000Y-42850000D03*
X210450000Y-42850000D03*
X217050000Y-39150000D03*
X210450000Y-39150000D03*
%TD*%
D44*
%TO.C,U4*%
X269550000Y-33350000D03*
X269550000Y-32400000D03*
X269550000Y-31450000D03*
D45*
X267250000Y-31450000D03*
X267250000Y-33350000D03*
%TD*%
M02*
