%TF.GenerationSoftware,KiCad,Pcbnew,8.0.3*%
%TF.CreationDate,2026-07-12T13:51:11+02:00*%
%TF.ProjectId,tube,74756265-2e6b-4696-9361-645f70636258,rev?*%
%TF.SameCoordinates,Original*%
%TF.FileFunction,Copper,L2,Bot*%
%TF.FilePolarity,Positive*%
%FSLAX46Y46*%
G04 Gerber Fmt 4.6, Leading zero omitted, Abs format (unit mm)*
G04 Created by KiCad (PCBNEW 8.0.3) date 2026-07-12 13:51:11*
%MOMM*%
%LPD*%
G01*
G04 APERTURE LIST*
G04 Aperture macros list*
%AMRoundRect*
0 Rectangle with rounded corners*
0 $1 Rounding radius*
0 $2 $3 $4 $5 $6 $7 $8 $9 X,Y pos of 4 corners*
0 Add a 4 corners polygon primitive as box body*
4,1,4,$2,$3,$4,$5,$6,$7,$8,$9,$2,$3,0*
0 Add four circle primitives for the rounded corners*
1,1,$1+$1,$2,$3*
1,1,$1+$1,$4,$5*
1,1,$1+$1,$6,$7*
1,1,$1+$1,$8,$9*
0 Add four rect primitives between the rounded corners*
20,1,$1+$1,$2,$3,$4,$5,0*
20,1,$1+$1,$4,$5,$6,$7,0*
20,1,$1+$1,$6,$7,$8,$9,0*
20,1,$1+$1,$8,$9,$2,$3,0*%
G04 Aperture macros list end*
%TA.AperFunction,HeatsinkPad*%
%ADD10C,0.600000*%
%TD*%
%TA.AperFunction,ComponentPad*%
%ADD11O,1.300000X2.100000*%
%TD*%
%TA.AperFunction,ComponentPad*%
%ADD12O,1.300000X2.300000*%
%TD*%
%TA.AperFunction,ComponentPad*%
%ADD13C,0.500000*%
%TD*%
%TA.AperFunction,ComponentPad*%
%ADD14RoundRect,0.250000X-0.725000X0.600000X-0.725000X-0.600000X0.725000X-0.600000X0.725000X0.600000X0*%
%TD*%
%TA.AperFunction,ComponentPad*%
%ADD15O,1.950000X1.700000*%
%TD*%
%TA.AperFunction,ComponentPad*%
%ADD16RoundRect,0.250000X-0.600000X-0.750000X0.600000X-0.750000X0.600000X0.750000X-0.600000X0.750000X0*%
%TD*%
%TA.AperFunction,ComponentPad*%
%ADD17O,1.700000X2.000000*%
%TD*%
%TA.AperFunction,ComponentPad*%
%ADD18RoundRect,0.250000X-0.600000X-0.725000X0.600000X-0.725000X0.600000X0.725000X-0.600000X0.725000X0*%
%TD*%
%TA.AperFunction,ComponentPad*%
%ADD19O,1.700000X1.950000*%
%TD*%
%TA.AperFunction,ComponentPad*%
%ADD20RoundRect,0.250000X0.725000X-0.600000X0.725000X0.600000X-0.725000X0.600000X-0.725000X-0.600000X0*%
%TD*%
%TA.AperFunction,ViaPad*%
%ADD21C,0.600000*%
%TD*%
%TA.AperFunction,Conductor*%
%ADD22C,0.250000*%
%TD*%
G04 APERTURE END LIST*
D10*
%TO.P,U1,19,GND*%
%TO.N,GNDREF*%
X236660000Y-42650000D03*
X236660000Y-43750000D03*
X237210000Y-42100000D03*
X237210000Y-43200000D03*
X237210000Y-44300000D03*
X237760000Y-42650000D03*
X237760000Y-43750000D03*
X238310000Y-42100000D03*
X238310000Y-43200000D03*
X238310000Y-44300000D03*
X238860000Y-42650000D03*
X238860000Y-43750000D03*
%TD*%
D11*
%TO.P,J6,S1,SHIELD*%
%TO.N,unconnected-(J6-SHIELD-PadS1)*%
X252270000Y-27420000D03*
D12*
X252270000Y-31620000D03*
D13*
X254600000Y-26800000D03*
X254600000Y-28800000D03*
X258600000Y-26800000D03*
X258600000Y-28800000D03*
D11*
X260930000Y-27420000D03*
D12*
X260930000Y-31620000D03*
%TD*%
D14*
%TO.P,J5,1,Pin_1*%
%TO.N,Net-(J5-Pin_1)*%
X196900000Y-34150000D03*
D15*
%TO.P,J5,2,Pin_2*%
%TO.N,Net-(J5-Pin_2)*%
X196900000Y-36650000D03*
%TO.P,J5,3,Pin_3*%
%TO.N,GNDREF*%
X196900000Y-39150000D03*
%TD*%
D16*
%TO.P,J3,1,Pin_1*%
%TO.N,Net-(D2-A2)*%
X203800000Y-51825000D03*
D17*
%TO.P,J3,2,Pin_2*%
%TO.N,GNDREF*%
X206300000Y-51825000D03*
%TD*%
D16*
%TO.P,J2,1,Pin_1*%
%TO.N,+24V*%
X213500000Y-52075000D03*
D17*
%TO.P,J2,2,Pin_2*%
%TO.N,GNDREF*%
X216000000Y-52075000D03*
%TD*%
D18*
%TO.P,J1,1,Pin_1*%
%TO.N,+5V*%
X251050000Y-54350000D03*
D19*
%TO.P,J1,2,Pin_2*%
%TO.N,Net-(J1-Pin_2)*%
X253550000Y-54350000D03*
%TO.P,J1,3,Pin_3*%
%TO.N,GNDREF*%
X256050000Y-54350000D03*
%TD*%
D15*
%TO.P,J7,3,Pin_3*%
%TO.N,GNDREF*%
X195900000Y-45750000D03*
%TO.P,J7,2,Pin_2*%
%TO.N,Net-(J5-Pin_2)*%
X195900000Y-48250000D03*
D20*
%TO.P,J7,1,Pin_1*%
%TO.N,Net-(J5-Pin_1)*%
X195900000Y-50750000D03*
%TD*%
D21*
%TO.N,3.3V*%
X210450000Y-31850000D03*
X212500000Y-31300000D03*
%TO.N,GNDREF*%
X253642231Y-34464264D03*
X263100000Y-43700000D03*
X264100000Y-52300000D03*
X267100000Y-29600000D03*
X262750000Y-30450000D03*
X248950000Y-47500000D03*
X230350000Y-49000000D03*
X219600000Y-44700000D03*
X207950000Y-42400000D03*
X201150000Y-34850000D03*
%TO.N,Net-(J1-Pin_2)*%
X243600000Y-40150000D03*
X251150000Y-50450000D03*
%TD*%
D22*
%TO.N,3.3V*%
X211000000Y-31300000D02*
X210450000Y-31850000D01*
X212500000Y-31300000D02*
X211000000Y-31300000D01*
%TO.N,Net-(J1-Pin_2)*%
X250850000Y-47400000D02*
X243600000Y-40150000D01*
X250850000Y-50150000D02*
X250850000Y-47400000D01*
X251150000Y-50450000D02*
X250850000Y-50150000D01*
%TD*%
%TA.AperFunction,Conductor*%
%TO.N,GNDREF*%
G36*
X222743039Y-25270185D02*
G01*
X222788794Y-25322989D01*
X222800000Y-25374500D01*
X222800000Y-35900000D01*
X250800000Y-35900000D01*
X250800000Y-31029448D01*
X251119500Y-31029448D01*
X251119500Y-32210551D01*
X251147829Y-32389410D01*
X251203787Y-32561636D01*
X251203788Y-32561639D01*
X251286006Y-32722997D01*
X251392441Y-32869494D01*
X251392445Y-32869499D01*
X251520500Y-32997554D01*
X251520505Y-32997558D01*
X251635825Y-33081342D01*
X251667006Y-33103996D01*
X251772484Y-33157740D01*
X251828360Y-33186211D01*
X251828363Y-33186212D01*
X251914476Y-33214191D01*
X252000591Y-33242171D01*
X252083429Y-33255291D01*
X252179449Y-33270500D01*
X252179454Y-33270500D01*
X252360551Y-33270500D01*
X252447259Y-33256765D01*
X252539409Y-33242171D01*
X252711639Y-33186211D01*
X252872994Y-33103996D01*
X253019501Y-32997553D01*
X253147553Y-32869501D01*
X253253996Y-32722994D01*
X253336211Y-32561639D01*
X253392171Y-32389409D01*
X253406765Y-32297259D01*
X253420500Y-32210551D01*
X253420500Y-31753947D01*
X253440185Y-31686908D01*
X253492989Y-31641153D01*
X253562147Y-31631209D01*
X253576584Y-31634170D01*
X253637525Y-31650500D01*
X253637527Y-31650500D01*
X253782472Y-31650500D01*
X253782475Y-31650500D01*
X253922485Y-31612984D01*
X254048015Y-31540509D01*
X254150509Y-31438015D01*
X254222984Y-31312485D01*
X254260500Y-31172475D01*
X254260500Y-31027525D01*
X258939500Y-31027525D01*
X258939500Y-31172475D01*
X258977016Y-31312485D01*
X258977017Y-31312488D01*
X259049488Y-31438011D01*
X259049490Y-31438013D01*
X259049491Y-31438015D01*
X259151985Y-31540509D01*
X259151986Y-31540510D01*
X259151988Y-31540511D01*
X259277511Y-31612982D01*
X259277512Y-31612982D01*
X259277515Y-31612984D01*
X259417525Y-31650500D01*
X259417528Y-31650500D01*
X259562473Y-31650500D01*
X259562475Y-31650500D01*
X259623407Y-31634173D01*
X259693255Y-31635834D01*
X259751118Y-31674996D01*
X259778623Y-31739224D01*
X259779500Y-31753947D01*
X259779500Y-32210551D01*
X259807829Y-32389410D01*
X259863787Y-32561636D01*
X259863788Y-32561639D01*
X259946006Y-32722997D01*
X260052441Y-32869494D01*
X260052445Y-32869499D01*
X260180500Y-32997554D01*
X260180505Y-32997558D01*
X260295825Y-33081342D01*
X260327006Y-33103996D01*
X260432484Y-33157740D01*
X260488360Y-33186211D01*
X260488363Y-33186212D01*
X260574476Y-33214191D01*
X260660591Y-33242171D01*
X260743429Y-33255291D01*
X260839449Y-33270500D01*
X260839454Y-33270500D01*
X261020551Y-33270500D01*
X261107259Y-33256765D01*
X261199409Y-33242171D01*
X261371639Y-33186211D01*
X261532994Y-33103996D01*
X261679501Y-32997553D01*
X261807553Y-32869501D01*
X261913996Y-32722994D01*
X261996211Y-32561639D01*
X262052171Y-32389409D01*
X262066765Y-32297259D01*
X262080500Y-32210551D01*
X262080500Y-31029448D01*
X262058019Y-30887515D01*
X262052171Y-30850591D01*
X262018086Y-30745687D01*
X261996212Y-30678363D01*
X261996211Y-30678360D01*
X261960372Y-30608024D01*
X261913996Y-30517006D01*
X261897597Y-30494435D01*
X261807558Y-30370505D01*
X261807554Y-30370500D01*
X261679499Y-30242445D01*
X261679494Y-30242441D01*
X261532997Y-30136006D01*
X261532996Y-30136005D01*
X261532994Y-30136004D01*
X261481300Y-30109664D01*
X261371639Y-30053788D01*
X261371636Y-30053787D01*
X261199410Y-29997829D01*
X261020551Y-29969500D01*
X261020546Y-29969500D01*
X260839454Y-29969500D01*
X260839449Y-29969500D01*
X260660589Y-29997829D01*
X260488363Y-30053787D01*
X260488360Y-30053788D01*
X260327002Y-30136006D01*
X260180505Y-30242441D01*
X260180500Y-30242445D01*
X260052445Y-30370500D01*
X260052441Y-30370505D01*
X259946005Y-30517002D01*
X259922408Y-30563314D01*
X259874433Y-30614109D01*
X259806611Y-30630903D01*
X259749924Y-30614404D01*
X259702488Y-30587017D01*
X259702489Y-30587017D01*
X259691006Y-30583940D01*
X259562475Y-30549500D01*
X259417525Y-30549500D01*
X259288993Y-30583940D01*
X259277511Y-30587017D01*
X259151988Y-30659488D01*
X259151982Y-30659493D01*
X259049493Y-30761982D01*
X259049488Y-30761988D01*
X258977017Y-30887511D01*
X258977016Y-30887515D01*
X258939500Y-31027525D01*
X254260500Y-31027525D01*
X254222984Y-30887515D01*
X254171150Y-30797737D01*
X254150511Y-30761988D01*
X254150506Y-30761982D01*
X254048017Y-30659493D01*
X254048011Y-30659488D01*
X253922488Y-30587017D01*
X253922489Y-30587017D01*
X253911006Y-30583940D01*
X253782475Y-30549500D01*
X253637525Y-30549500D01*
X253497515Y-30587016D01*
X253497514Y-30587016D01*
X253497512Y-30587017D01*
X253450074Y-30614405D01*
X253382173Y-30630876D01*
X253316147Y-30608024D01*
X253277590Y-30563312D01*
X253253996Y-30517006D01*
X253237597Y-30494435D01*
X253147558Y-30370505D01*
X253147554Y-30370500D01*
X253019499Y-30242445D01*
X253019494Y-30242441D01*
X252872997Y-30136006D01*
X252872996Y-30136005D01*
X252872994Y-30136004D01*
X252821300Y-30109664D01*
X252711639Y-30053788D01*
X252711636Y-30053787D01*
X252539410Y-29997829D01*
X252360551Y-29969500D01*
X252360546Y-29969500D01*
X252179454Y-29969500D01*
X252179449Y-29969500D01*
X252000589Y-29997829D01*
X251828363Y-30053787D01*
X251828360Y-30053788D01*
X251667002Y-30136006D01*
X251520505Y-30242441D01*
X251520500Y-30242445D01*
X251392445Y-30370500D01*
X251392441Y-30370505D01*
X251286006Y-30517002D01*
X251203788Y-30678360D01*
X251203787Y-30678363D01*
X251147829Y-30850589D01*
X251119500Y-31029448D01*
X250800000Y-31029448D01*
X250800000Y-26929448D01*
X251119500Y-26929448D01*
X251119500Y-27910551D01*
X251147829Y-28089410D01*
X251203787Y-28261636D01*
X251203788Y-28261639D01*
X251286006Y-28422997D01*
X251392441Y-28569494D01*
X251392445Y-28569499D01*
X251520500Y-28697554D01*
X251520505Y-28697558D01*
X251648287Y-28790396D01*
X251667006Y-28803996D01*
X251772484Y-28857740D01*
X251828360Y-28886211D01*
X251828363Y-28886212D01*
X251914476Y-28914191D01*
X252000591Y-28942171D01*
X252073692Y-28953749D01*
X252179449Y-28970500D01*
X252179454Y-28970500D01*
X252360551Y-28970500D01*
X252447259Y-28956765D01*
X252539409Y-28942171D01*
X252711639Y-28886211D01*
X252872994Y-28803996D01*
X252878498Y-28799997D01*
X253844751Y-28799997D01*
X253844751Y-28800002D01*
X253863685Y-28968056D01*
X253919545Y-29127694D01*
X253919547Y-29127697D01*
X254009518Y-29270884D01*
X254009523Y-29270890D01*
X254129109Y-29390476D01*
X254129115Y-29390481D01*
X254272302Y-29480452D01*
X254272305Y-29480454D01*
X254272309Y-29480455D01*
X254272310Y-29480456D01*
X254344913Y-29505860D01*
X254431943Y-29536314D01*
X254599997Y-29555249D01*
X254600000Y-29555249D01*
X254600003Y-29555249D01*
X254768056Y-29536314D01*
X254768059Y-29536313D01*
X254927690Y-29480456D01*
X254927692Y-29480454D01*
X254927694Y-29480454D01*
X254927697Y-29480452D01*
X255070884Y-29390481D01*
X255070885Y-29390480D01*
X255070890Y-29390477D01*
X255190477Y-29270890D01*
X255247044Y-29180865D01*
X255280452Y-29127697D01*
X255280454Y-29127694D01*
X255280454Y-29127692D01*
X255280456Y-29127690D01*
X255336313Y-28968059D01*
X255336313Y-28968058D01*
X255336314Y-28968056D01*
X255355249Y-28800002D01*
X255355249Y-28799997D01*
X257844751Y-28799997D01*
X257844751Y-28800002D01*
X257863685Y-28968056D01*
X257919545Y-29127694D01*
X257919547Y-29127697D01*
X258009518Y-29270884D01*
X258009523Y-29270890D01*
X258129109Y-29390476D01*
X258129115Y-29390481D01*
X258272302Y-29480452D01*
X258272305Y-29480454D01*
X258272309Y-29480455D01*
X258272310Y-29480456D01*
X258344913Y-29505860D01*
X258431943Y-29536314D01*
X258599997Y-29555249D01*
X258600000Y-29555249D01*
X258600003Y-29555249D01*
X258768056Y-29536314D01*
X258768059Y-29536313D01*
X258927690Y-29480456D01*
X258927692Y-29480454D01*
X258927694Y-29480454D01*
X258927697Y-29480452D01*
X259070884Y-29390481D01*
X259070885Y-29390480D01*
X259070890Y-29390477D01*
X259190477Y-29270890D01*
X259247044Y-29180865D01*
X259280452Y-29127697D01*
X259280454Y-29127694D01*
X259280454Y-29127692D01*
X259280456Y-29127690D01*
X259336313Y-28968059D01*
X259336313Y-28968058D01*
X259336314Y-28968056D01*
X259355249Y-28800002D01*
X259355249Y-28799997D01*
X259336314Y-28631943D01*
X259305856Y-28544899D01*
X259280456Y-28472310D01*
X259280455Y-28472309D01*
X259280454Y-28472305D01*
X259280452Y-28472302D01*
X259190481Y-28329115D01*
X259190476Y-28329109D01*
X259070890Y-28209523D01*
X259070884Y-28209518D01*
X258927697Y-28119547D01*
X258927694Y-28119545D01*
X258768056Y-28063685D01*
X258600003Y-28044751D01*
X258599997Y-28044751D01*
X258431943Y-28063685D01*
X258272305Y-28119545D01*
X258272302Y-28119547D01*
X258129115Y-28209518D01*
X258129109Y-28209523D01*
X258009523Y-28329109D01*
X258009518Y-28329115D01*
X257919547Y-28472302D01*
X257919545Y-28472305D01*
X257863685Y-28631943D01*
X257844751Y-28799997D01*
X255355249Y-28799997D01*
X255336314Y-28631943D01*
X255305856Y-28544899D01*
X255280456Y-28472310D01*
X255280455Y-28472309D01*
X255280454Y-28472305D01*
X255280452Y-28472302D01*
X255190481Y-28329115D01*
X255190476Y-28329109D01*
X255070890Y-28209523D01*
X255070884Y-28209518D01*
X254927697Y-28119547D01*
X254927694Y-28119545D01*
X254768056Y-28063685D01*
X254600003Y-28044751D01*
X254599997Y-28044751D01*
X254431943Y-28063685D01*
X254272305Y-28119545D01*
X254272302Y-28119547D01*
X254129115Y-28209518D01*
X254129109Y-28209523D01*
X254009523Y-28329109D01*
X254009518Y-28329115D01*
X253919547Y-28472302D01*
X253919545Y-28472305D01*
X253863685Y-28631943D01*
X253844751Y-28799997D01*
X252878498Y-28799997D01*
X253019501Y-28697553D01*
X253147553Y-28569501D01*
X253253996Y-28422994D01*
X253336211Y-28261639D01*
X253392171Y-28089409D01*
X253411576Y-27966892D01*
X253420500Y-27910551D01*
X253420500Y-26929448D01*
X253399997Y-26800002D01*
X253399996Y-26799997D01*
X253844751Y-26799997D01*
X253844751Y-26800002D01*
X253863685Y-26968056D01*
X253919545Y-27127694D01*
X253919547Y-27127697D01*
X254009518Y-27270884D01*
X254009523Y-27270890D01*
X254129109Y-27390476D01*
X254129115Y-27390481D01*
X254272302Y-27480452D01*
X254272305Y-27480454D01*
X254272309Y-27480455D01*
X254272310Y-27480456D01*
X254344913Y-27505860D01*
X254431943Y-27536314D01*
X254599997Y-27555249D01*
X254600000Y-27555249D01*
X254600003Y-27555249D01*
X254768056Y-27536314D01*
X254768059Y-27536313D01*
X254927690Y-27480456D01*
X254927692Y-27480454D01*
X254927694Y-27480454D01*
X254927697Y-27480452D01*
X255070884Y-27390481D01*
X255070885Y-27390480D01*
X255070890Y-27390477D01*
X255190477Y-27270890D01*
X255231943Y-27204898D01*
X255280452Y-27127697D01*
X255280454Y-27127694D01*
X255280454Y-27127692D01*
X255280456Y-27127690D01*
X255336313Y-26968059D01*
X255336313Y-26968058D01*
X255336314Y-26968056D01*
X255355249Y-26800002D01*
X255355249Y-26799997D01*
X257844751Y-26799997D01*
X257844751Y-26800002D01*
X257863685Y-26968056D01*
X257919545Y-27127694D01*
X257919547Y-27127697D01*
X258009518Y-27270884D01*
X258009523Y-27270890D01*
X258129109Y-27390476D01*
X258129115Y-27390481D01*
X258272302Y-27480452D01*
X258272305Y-27480454D01*
X258272309Y-27480455D01*
X258272310Y-27480456D01*
X258344913Y-27505860D01*
X258431943Y-27536314D01*
X258599997Y-27555249D01*
X258600000Y-27555249D01*
X258600003Y-27555249D01*
X258768056Y-27536314D01*
X258768059Y-27536313D01*
X258927690Y-27480456D01*
X258927692Y-27480454D01*
X258927694Y-27480454D01*
X258927697Y-27480452D01*
X259070884Y-27390481D01*
X259070885Y-27390480D01*
X259070890Y-27390477D01*
X259190477Y-27270890D01*
X259231943Y-27204898D01*
X259280452Y-27127697D01*
X259280454Y-27127694D01*
X259280454Y-27127692D01*
X259280456Y-27127690D01*
X259336313Y-26968059D01*
X259336313Y-26968058D01*
X259336314Y-26968056D01*
X259340664Y-26929448D01*
X259779500Y-26929448D01*
X259779500Y-27910551D01*
X259807829Y-28089410D01*
X259863787Y-28261636D01*
X259863788Y-28261639D01*
X259946006Y-28422997D01*
X260052441Y-28569494D01*
X260052445Y-28569499D01*
X260180500Y-28697554D01*
X260180505Y-28697558D01*
X260308287Y-28790396D01*
X260327006Y-28803996D01*
X260432484Y-28857740D01*
X260488360Y-28886211D01*
X260488363Y-28886212D01*
X260574476Y-28914191D01*
X260660591Y-28942171D01*
X260733692Y-28953749D01*
X260839449Y-28970500D01*
X260839454Y-28970500D01*
X261020551Y-28970500D01*
X261107259Y-28956765D01*
X261199409Y-28942171D01*
X261371639Y-28886211D01*
X261532994Y-28803996D01*
X261679501Y-28697553D01*
X261807553Y-28569501D01*
X261913996Y-28422994D01*
X261996211Y-28261639D01*
X262052171Y-28089409D01*
X262071576Y-27966892D01*
X262080500Y-27910551D01*
X262080500Y-26929448D01*
X262059997Y-26800002D01*
X262052171Y-26750591D01*
X261996211Y-26578361D01*
X261996211Y-26578360D01*
X261942172Y-26472305D01*
X261913996Y-26417006D01*
X261850140Y-26329115D01*
X261807558Y-26270505D01*
X261807554Y-26270500D01*
X261679499Y-26142445D01*
X261679494Y-26142441D01*
X261532997Y-26036006D01*
X261532996Y-26036005D01*
X261532994Y-26036004D01*
X261466303Y-26002023D01*
X261371639Y-25953788D01*
X261371636Y-25953787D01*
X261199410Y-25897829D01*
X261020551Y-25869500D01*
X261020546Y-25869500D01*
X260839454Y-25869500D01*
X260839449Y-25869500D01*
X260660589Y-25897829D01*
X260488363Y-25953787D01*
X260488360Y-25953788D01*
X260327002Y-26036006D01*
X260180505Y-26142441D01*
X260180500Y-26142445D01*
X260052445Y-26270500D01*
X260052441Y-26270505D01*
X259946006Y-26417002D01*
X259863788Y-26578360D01*
X259863787Y-26578363D01*
X259807829Y-26750589D01*
X259779500Y-26929448D01*
X259340664Y-26929448D01*
X259355249Y-26800002D01*
X259355249Y-26799997D01*
X259336314Y-26631943D01*
X259305860Y-26544913D01*
X259280456Y-26472310D01*
X259280455Y-26472309D01*
X259280454Y-26472305D01*
X259280452Y-26472302D01*
X259190481Y-26329115D01*
X259190476Y-26329109D01*
X259070890Y-26209523D01*
X259070884Y-26209518D01*
X258927697Y-26119547D01*
X258927694Y-26119545D01*
X258768056Y-26063685D01*
X258600003Y-26044751D01*
X258599997Y-26044751D01*
X258431943Y-26063685D01*
X258272305Y-26119545D01*
X258272302Y-26119547D01*
X258129115Y-26209518D01*
X258129109Y-26209523D01*
X258009523Y-26329109D01*
X258009518Y-26329115D01*
X257919547Y-26472302D01*
X257919545Y-26472305D01*
X257863685Y-26631943D01*
X257844751Y-26799997D01*
X255355249Y-26799997D01*
X255336314Y-26631943D01*
X255305860Y-26544913D01*
X255280456Y-26472310D01*
X255280455Y-26472309D01*
X255280454Y-26472305D01*
X255280452Y-26472302D01*
X255190481Y-26329115D01*
X255190476Y-26329109D01*
X255070890Y-26209523D01*
X255070884Y-26209518D01*
X254927697Y-26119547D01*
X254927694Y-26119545D01*
X254768056Y-26063685D01*
X254600003Y-26044751D01*
X254599997Y-26044751D01*
X254431943Y-26063685D01*
X254272305Y-26119545D01*
X254272302Y-26119547D01*
X254129115Y-26209518D01*
X254129109Y-26209523D01*
X254009523Y-26329109D01*
X254009518Y-26329115D01*
X253919547Y-26472302D01*
X253919545Y-26472305D01*
X253863685Y-26631943D01*
X253844751Y-26799997D01*
X253399996Y-26799997D01*
X253392171Y-26750591D01*
X253336211Y-26578361D01*
X253336211Y-26578360D01*
X253282172Y-26472305D01*
X253253996Y-26417006D01*
X253190140Y-26329115D01*
X253147558Y-26270505D01*
X253147554Y-26270500D01*
X253019499Y-26142445D01*
X253019494Y-26142441D01*
X252872997Y-26036006D01*
X252872996Y-26036005D01*
X252872994Y-26036004D01*
X252806303Y-26002023D01*
X252711639Y-25953788D01*
X252711636Y-25953787D01*
X252539410Y-25897829D01*
X252360551Y-25869500D01*
X252360546Y-25869500D01*
X252179454Y-25869500D01*
X252179449Y-25869500D01*
X252000589Y-25897829D01*
X251828363Y-25953787D01*
X251828360Y-25953788D01*
X251667002Y-26036006D01*
X251520505Y-26142441D01*
X251520500Y-26142445D01*
X251392445Y-26270500D01*
X251392441Y-26270505D01*
X251286006Y-26417002D01*
X251203788Y-26578360D01*
X251203787Y-26578363D01*
X251147829Y-26750589D01*
X251119500Y-26929448D01*
X250800000Y-26929448D01*
X250800000Y-25374500D01*
X250819685Y-25307461D01*
X250872489Y-25261706D01*
X250924000Y-25250500D01*
X268620596Y-25250500D01*
X268687635Y-25270185D01*
X268733390Y-25322989D01*
X268743334Y-25392147D01*
X268714309Y-25455703D01*
X268680333Y-25483162D01*
X268622186Y-25515128D01*
X268622168Y-25515139D01*
X268365301Y-25701764D01*
X268365291Y-25701772D01*
X268133825Y-25919133D01*
X267931419Y-26163800D01*
X267761285Y-26431889D01*
X267626084Y-26719206D01*
X267527964Y-27021187D01*
X267468463Y-27333100D01*
X267468462Y-27333107D01*
X267448526Y-27649994D01*
X267448526Y-27650005D01*
X267468462Y-27966892D01*
X267468463Y-27966899D01*
X267489811Y-28078808D01*
X267527963Y-28278808D01*
X267626085Y-28580796D01*
X267761282Y-28868105D01*
X267761284Y-28868108D01*
X267761285Y-28868110D01*
X267931419Y-29136199D01*
X267931422Y-29136203D01*
X267931423Y-29136204D01*
X268133824Y-29380865D01*
X268351056Y-29584860D01*
X268365291Y-29598227D01*
X268365301Y-29598235D01*
X268622168Y-29784860D01*
X268622186Y-29784872D01*
X268900433Y-29937839D01*
X268900441Y-29937843D01*
X269188610Y-30051936D01*
X269195664Y-30054729D01*
X269503218Y-30133696D01*
X269503220Y-30133696D01*
X269503223Y-30133697D01*
X269818231Y-30173492D01*
X269818240Y-30173492D01*
X269818243Y-30173493D01*
X269818245Y-30173493D01*
X270135771Y-30173493D01*
X270135773Y-30173493D01*
X270135776Y-30173492D01*
X270135784Y-30173492D01*
X270450792Y-30133697D01*
X270450793Y-30133696D01*
X270450798Y-30133696D01*
X270758352Y-30054729D01*
X270902440Y-29997680D01*
X271053574Y-29937843D01*
X271053578Y-29937840D01*
X271053583Y-29937839D01*
X271331836Y-29784868D01*
X271588723Y-29598229D01*
X271820192Y-29380865D01*
X272022593Y-29136204D01*
X272192734Y-28868105D01*
X272327931Y-28580796D01*
X272426053Y-28278808D01*
X272485552Y-27966903D01*
X272488473Y-27920476D01*
X272505490Y-27650005D01*
X272505490Y-27649994D01*
X272485553Y-27333107D01*
X272485552Y-27333100D01*
X272485552Y-27333097D01*
X272426053Y-27021192D01*
X272327931Y-26719204D01*
X272192734Y-26431895D01*
X272127504Y-26329109D01*
X272022596Y-26163800D01*
X272022593Y-26163796D01*
X271820192Y-25919135D01*
X271797503Y-25897829D01*
X271588724Y-25701772D01*
X271588714Y-25701764D01*
X271331847Y-25515139D01*
X271331829Y-25515128D01*
X271273683Y-25483162D01*
X271224419Y-25433616D01*
X271209762Y-25365301D01*
X271234365Y-25299907D01*
X271290418Y-25258195D01*
X271333420Y-25250500D01*
X272725500Y-25250500D01*
X272792539Y-25270185D01*
X272838294Y-25322989D01*
X272849500Y-25374500D01*
X272849500Y-55201339D01*
X272829815Y-55268378D01*
X272777011Y-55314133D01*
X272707853Y-55324077D01*
X272644297Y-55295052D01*
X272607569Y-55239658D01*
X272600923Y-55219204D01*
X272579530Y-55173741D01*
X272465726Y-54931895D01*
X272397888Y-54825000D01*
X272295588Y-54663800D01*
X272295585Y-54663796D01*
X272093184Y-54419135D01*
X271861715Y-54201771D01*
X271861712Y-54201769D01*
X271861706Y-54201764D01*
X271604839Y-54015139D01*
X271604821Y-54015127D01*
X271326574Y-53862160D01*
X271326566Y-53862156D01*
X271031348Y-53745272D01*
X270723784Y-53666302D01*
X270408776Y-53626507D01*
X270408765Y-53626507D01*
X270091235Y-53626507D01*
X270091223Y-53626507D01*
X269776215Y-53666302D01*
X269468651Y-53745272D01*
X269173433Y-53862156D01*
X269173425Y-53862160D01*
X268895178Y-54015127D01*
X268895160Y-54015139D01*
X268638293Y-54201764D01*
X268638283Y-54201772D01*
X268406817Y-54419133D01*
X268204411Y-54663800D01*
X268034277Y-54931889D01*
X267899076Y-55219206D01*
X267800956Y-55521187D01*
X267741455Y-55833100D01*
X267741454Y-55833107D01*
X267721518Y-56149994D01*
X267721518Y-56150005D01*
X267741454Y-56466892D01*
X267741455Y-56466899D01*
X267800956Y-56778812D01*
X267824088Y-56850005D01*
X267899077Y-57080796D01*
X268034274Y-57368105D01*
X268034276Y-57368108D01*
X268034277Y-57368110D01*
X268204411Y-57636199D01*
X268204414Y-57636203D01*
X268204415Y-57636204D01*
X268218929Y-57653749D01*
X268406817Y-57880866D01*
X268638283Y-58098227D01*
X268638293Y-58098235D01*
X268895160Y-58284860D01*
X268895178Y-58284872D01*
X269173425Y-58437839D01*
X269173433Y-58437843D01*
X269461602Y-58551936D01*
X269468656Y-58554729D01*
X269776210Y-58633696D01*
X269776212Y-58633696D01*
X269776215Y-58633697D01*
X270091223Y-58673492D01*
X270091232Y-58673492D01*
X270091235Y-58673493D01*
X270091237Y-58673493D01*
X270408763Y-58673493D01*
X270408765Y-58673493D01*
X270408768Y-58673492D01*
X270408776Y-58673492D01*
X270723784Y-58633697D01*
X270723785Y-58633696D01*
X270723790Y-58633696D01*
X271031344Y-58554729D01*
X271175432Y-58497680D01*
X271326566Y-58437843D01*
X271326570Y-58437840D01*
X271326575Y-58437839D01*
X271604828Y-58284868D01*
X271861715Y-58098229D01*
X272093184Y-57880865D01*
X272295585Y-57636204D01*
X272465726Y-57368105D01*
X272600923Y-57080796D01*
X272607569Y-57060342D01*
X272647006Y-57002667D01*
X272711365Y-56975468D01*
X272780211Y-56987382D01*
X272831687Y-57034626D01*
X272849500Y-57098660D01*
X272849500Y-58975500D01*
X272829815Y-59042539D01*
X272777011Y-59088294D01*
X272725500Y-59099500D01*
X195028684Y-59099500D01*
X194961645Y-59079815D01*
X194915890Y-59027011D01*
X194905946Y-58957853D01*
X194934971Y-58894297D01*
X194955799Y-58875182D01*
X195014016Y-58832884D01*
X195061715Y-58798229D01*
X195293184Y-58580865D01*
X195495585Y-58336204D01*
X195665726Y-58068105D01*
X195800923Y-57780796D01*
X195899045Y-57478808D01*
X195958544Y-57166903D01*
X195962838Y-57098660D01*
X195978482Y-56850005D01*
X195978482Y-56849994D01*
X195958545Y-56533107D01*
X195958544Y-56533100D01*
X195958544Y-56533097D01*
X195899045Y-56221192D01*
X195800923Y-55919204D01*
X195665726Y-55631895D01*
X195595472Y-55521192D01*
X195495588Y-55363800D01*
X195487865Y-55354464D01*
X195293184Y-55119135D01*
X195244518Y-55073435D01*
X195061716Y-54901772D01*
X195061706Y-54901764D01*
X194804839Y-54715139D01*
X194804821Y-54715127D01*
X194526574Y-54562160D01*
X194526566Y-54562156D01*
X194231348Y-54445272D01*
X193923784Y-54366302D01*
X193608776Y-54326507D01*
X193608765Y-54326507D01*
X193291235Y-54326507D01*
X193291223Y-54326507D01*
X192976215Y-54366302D01*
X192668651Y-54445272D01*
X192373433Y-54562156D01*
X192373425Y-54562160D01*
X192095178Y-54715127D01*
X192095160Y-54715139D01*
X191838293Y-54901764D01*
X191838283Y-54901772D01*
X191606817Y-55119133D01*
X191404411Y-55363800D01*
X191234277Y-55631889D01*
X191234274Y-55631893D01*
X191234274Y-55631895D01*
X191099077Y-55919204D01*
X191000955Y-56221192D01*
X190996302Y-56245580D01*
X190964406Y-56307741D01*
X190903963Y-56342791D01*
X190834166Y-56339599D01*
X190777175Y-56299179D01*
X190751084Y-56234364D01*
X190750500Y-56222342D01*
X190750500Y-48143713D01*
X194424500Y-48143713D01*
X194424500Y-48356286D01*
X194457753Y-48566239D01*
X194523444Y-48768414D01*
X194619951Y-48957820D01*
X194744890Y-49129786D01*
X194883705Y-49268601D01*
X194917190Y-49329924D01*
X194912206Y-49399616D01*
X194870334Y-49455549D01*
X194861121Y-49461821D01*
X194706342Y-49557289D01*
X194582289Y-49681342D01*
X194490187Y-49830663D01*
X194490186Y-49830666D01*
X194435001Y-49997203D01*
X194435001Y-49997204D01*
X194435000Y-49997204D01*
X194424500Y-50099983D01*
X194424500Y-51400001D01*
X194424501Y-51400018D01*
X194435000Y-51502796D01*
X194435001Y-51502799D01*
X194470150Y-51608869D01*
X194490186Y-51669334D01*
X194582288Y-51818656D01*
X194706344Y-51942712D01*
X194855666Y-52034814D01*
X195022203Y-52089999D01*
X195124991Y-52100500D01*
X196675008Y-52100499D01*
X196777797Y-52089999D01*
X196944334Y-52034814D01*
X197093656Y-51942712D01*
X197217712Y-51818656D01*
X197309814Y-51669334D01*
X197364999Y-51502797D01*
X197375500Y-51400009D01*
X197375500Y-51024983D01*
X202449500Y-51024983D01*
X202449500Y-52625001D01*
X202449501Y-52625018D01*
X202460000Y-52727796D01*
X202460001Y-52727799D01*
X202494031Y-52830493D01*
X202515186Y-52894334D01*
X202607288Y-53043656D01*
X202731344Y-53167712D01*
X202880666Y-53259814D01*
X203047203Y-53314999D01*
X203149991Y-53325500D01*
X204450008Y-53325499D01*
X204552797Y-53314999D01*
X204719334Y-53259814D01*
X204868656Y-53167712D01*
X204992712Y-53043656D01*
X205084814Y-52894334D01*
X205084814Y-52894331D01*
X205088448Y-52888441D01*
X205140395Y-52841716D01*
X205209358Y-52830493D01*
X205273440Y-52858336D01*
X205281668Y-52865856D01*
X205420535Y-53004723D01*
X205420540Y-53004727D01*
X205592442Y-53129620D01*
X205781782Y-53226095D01*
X205983871Y-53291757D01*
X206050000Y-53302231D01*
X206050000Y-52258012D01*
X206107007Y-52290925D01*
X206234174Y-52325000D01*
X206365826Y-52325000D01*
X206492993Y-52290925D01*
X206550000Y-52258012D01*
X206550000Y-53302230D01*
X206616126Y-53291757D01*
X206616129Y-53291757D01*
X206818217Y-53226095D01*
X207007557Y-53129620D01*
X207179459Y-53004727D01*
X207179464Y-53004723D01*
X207329723Y-52854464D01*
X207329727Y-52854459D01*
X207454620Y-52682557D01*
X207551095Y-52493217D01*
X207616757Y-52291130D01*
X207616757Y-52291127D01*
X207650000Y-52081246D01*
X207650000Y-52075000D01*
X206733012Y-52075000D01*
X206765925Y-52017993D01*
X206800000Y-51890826D01*
X206800000Y-51759174D01*
X206765925Y-51632007D01*
X206733012Y-51575000D01*
X207650000Y-51575000D01*
X207650000Y-51568753D01*
X207616757Y-51358872D01*
X207616757Y-51358869D01*
X207589501Y-51274983D01*
X212149500Y-51274983D01*
X212149500Y-52875001D01*
X212149501Y-52875018D01*
X212160000Y-52977796D01*
X212160001Y-52977799D01*
X212215185Y-53144331D01*
X212215187Y-53144336D01*
X212246368Y-53194889D01*
X212307288Y-53293656D01*
X212431344Y-53417712D01*
X212580666Y-53509814D01*
X212747203Y-53564999D01*
X212849991Y-53575500D01*
X214150008Y-53575499D01*
X214155059Y-53574983D01*
X249699500Y-53574983D01*
X249699500Y-55125001D01*
X249699501Y-55125018D01*
X249710000Y-55227796D01*
X249710001Y-55227799D01*
X249765185Y-55394331D01*
X249765187Y-55394336D01*
X249800069Y-55450888D01*
X249857288Y-55543656D01*
X249981344Y-55667712D01*
X250130666Y-55759814D01*
X250297203Y-55814999D01*
X250399991Y-55825500D01*
X251700008Y-55825499D01*
X251802797Y-55814999D01*
X251969334Y-55759814D01*
X252118656Y-55667712D01*
X252242712Y-55543656D01*
X252334814Y-55394334D01*
X252334814Y-55394331D01*
X252338178Y-55388879D01*
X252390126Y-55342154D01*
X252459088Y-55330931D01*
X252523170Y-55358774D01*
X252531398Y-55366294D01*
X252670213Y-55505109D01*
X252842179Y-55630048D01*
X252842181Y-55630049D01*
X252842184Y-55630051D01*
X253031588Y-55726557D01*
X253233757Y-55792246D01*
X253443713Y-55825500D01*
X253443714Y-55825500D01*
X253656286Y-55825500D01*
X253656287Y-55825500D01*
X253866243Y-55792246D01*
X254068412Y-55726557D01*
X254257816Y-55630051D01*
X254279789Y-55614086D01*
X254429786Y-55505109D01*
X254429788Y-55505106D01*
X254429792Y-55505104D01*
X254580104Y-55354792D01*
X254699991Y-55189779D01*
X254755320Y-55147115D01*
X254824933Y-55141136D01*
X254886729Y-55173741D01*
X254900627Y-55189781D01*
X255020272Y-55354459D01*
X255020276Y-55354464D01*
X255170535Y-55504723D01*
X255170540Y-55504727D01*
X255342442Y-55629620D01*
X255531782Y-55726095D01*
X255733871Y-55791757D01*
X255800000Y-55802231D01*
X255800000Y-54754145D01*
X255866657Y-54792630D01*
X255987465Y-54825000D01*
X256112535Y-54825000D01*
X256233343Y-54792630D01*
X256300000Y-54754145D01*
X256300000Y-55802230D01*
X256366126Y-55791757D01*
X256366129Y-55791757D01*
X256568217Y-55726095D01*
X256757557Y-55629620D01*
X256929459Y-55504727D01*
X256929464Y-55504723D01*
X257079723Y-55354464D01*
X257079727Y-55354459D01*
X257204620Y-55182557D01*
X257301095Y-54993217D01*
X257366757Y-54791130D01*
X257366757Y-54791127D01*
X257397030Y-54600000D01*
X256454146Y-54600000D01*
X256492630Y-54533343D01*
X256525000Y-54412535D01*
X256525000Y-54287465D01*
X256492630Y-54166657D01*
X256454146Y-54100000D01*
X257397030Y-54100000D01*
X257366757Y-53908872D01*
X257366757Y-53908869D01*
X257301095Y-53706782D01*
X257204620Y-53517442D01*
X257079727Y-53345540D01*
X257079723Y-53345535D01*
X256929464Y-53195276D01*
X256929459Y-53195272D01*
X256757557Y-53070379D01*
X256568215Y-52973903D01*
X256366124Y-52908241D01*
X256300000Y-52897768D01*
X256300000Y-53945854D01*
X256233343Y-53907370D01*
X256112535Y-53875000D01*
X255987465Y-53875000D01*
X255866657Y-53907370D01*
X255800000Y-53945854D01*
X255800000Y-52897768D01*
X255799999Y-52897768D01*
X255733875Y-52908241D01*
X255531784Y-52973903D01*
X255342442Y-53070379D01*
X255170540Y-53195272D01*
X255170535Y-53195276D01*
X255020276Y-53345535D01*
X255020272Y-53345540D01*
X254900627Y-53510218D01*
X254845297Y-53552884D01*
X254775684Y-53558863D01*
X254713889Y-53526257D01*
X254699991Y-53510218D01*
X254580109Y-53345214D01*
X254580105Y-53345209D01*
X254429786Y-53194890D01*
X254257820Y-53069951D01*
X254068414Y-52973444D01*
X254068413Y-52973443D01*
X254068412Y-52973443D01*
X253866243Y-52907754D01*
X253866241Y-52907753D01*
X253866240Y-52907753D01*
X253704957Y-52882208D01*
X253656287Y-52874500D01*
X253443713Y-52874500D01*
X253395042Y-52882208D01*
X253233760Y-52907753D01*
X253031585Y-52973444D01*
X252842179Y-53069951D01*
X252670215Y-53194889D01*
X252531398Y-53333706D01*
X252470075Y-53367190D01*
X252400383Y-53362206D01*
X252344450Y-53320334D01*
X252338178Y-53311120D01*
X252285734Y-53226095D01*
X252242712Y-53156344D01*
X252118656Y-53032288D01*
X251969334Y-52940186D01*
X251802797Y-52885001D01*
X251802795Y-52885000D01*
X251700010Y-52874500D01*
X250399998Y-52874500D01*
X250399981Y-52874501D01*
X250297203Y-52885000D01*
X250297200Y-52885001D01*
X250130668Y-52940185D01*
X250130663Y-52940187D01*
X249981342Y-53032289D01*
X249857289Y-53156342D01*
X249765187Y-53305663D01*
X249765185Y-53305668D01*
X249755894Y-53333706D01*
X249710001Y-53472203D01*
X249710001Y-53472204D01*
X249710000Y-53472204D01*
X249699500Y-53574983D01*
X214155059Y-53574983D01*
X214252797Y-53564999D01*
X214419334Y-53509814D01*
X214568656Y-53417712D01*
X214692712Y-53293656D01*
X214784814Y-53144334D01*
X214784814Y-53144331D01*
X214788448Y-53138441D01*
X214840395Y-53091716D01*
X214909358Y-53080493D01*
X214973440Y-53108336D01*
X214981668Y-53115856D01*
X215120535Y-53254723D01*
X215120540Y-53254727D01*
X215292442Y-53379620D01*
X215481782Y-53476095D01*
X215683871Y-53541757D01*
X215750000Y-53552231D01*
X215750000Y-52508012D01*
X215807007Y-52540925D01*
X215934174Y-52575000D01*
X216065826Y-52575000D01*
X216192993Y-52540925D01*
X216250000Y-52508012D01*
X216250000Y-53552230D01*
X216316126Y-53541757D01*
X216316129Y-53541757D01*
X216518217Y-53476095D01*
X216707557Y-53379620D01*
X216879459Y-53254727D01*
X216879464Y-53254723D01*
X217029723Y-53104464D01*
X217029727Y-53104459D01*
X217154620Y-52932557D01*
X217251095Y-52743217D01*
X217316757Y-52541130D01*
X217316757Y-52541127D01*
X217350000Y-52331246D01*
X217350000Y-52325000D01*
X216433012Y-52325000D01*
X216465925Y-52267993D01*
X216500000Y-52140826D01*
X216500000Y-52009174D01*
X216465925Y-51882007D01*
X216433012Y-51825000D01*
X217350000Y-51825000D01*
X217350000Y-51818753D01*
X217316757Y-51608872D01*
X217316757Y-51608869D01*
X217251095Y-51406782D01*
X217154620Y-51217442D01*
X217029727Y-51045540D01*
X217029723Y-51045535D01*
X216879464Y-50895276D01*
X216879459Y-50895272D01*
X216707557Y-50770379D01*
X216518215Y-50673903D01*
X216316124Y-50608241D01*
X216250000Y-50597768D01*
X216250000Y-51641988D01*
X216192993Y-51609075D01*
X216065826Y-51575000D01*
X215934174Y-51575000D01*
X215807007Y-51609075D01*
X215750000Y-51641988D01*
X215750000Y-50597768D01*
X215749999Y-50597768D01*
X215683875Y-50608241D01*
X215481784Y-50673903D01*
X215292442Y-50770379D01*
X215120541Y-50895271D01*
X214981668Y-51034144D01*
X214920345Y-51067628D01*
X214850653Y-51062644D01*
X214794720Y-51020772D01*
X214788448Y-51011558D01*
X214733334Y-50922204D01*
X214692712Y-50856344D01*
X214568656Y-50732288D01*
X214473998Y-50673903D01*
X214419336Y-50640187D01*
X214419331Y-50640185D01*
X214386328Y-50629249D01*
X214252797Y-50585001D01*
X214252795Y-50585000D01*
X214150010Y-50574500D01*
X212849998Y-50574500D01*
X212849981Y-50574501D01*
X212747203Y-50585000D01*
X212747200Y-50585001D01*
X212580668Y-50640185D01*
X212580663Y-50640187D01*
X212431342Y-50732289D01*
X212307289Y-50856342D01*
X212215187Y-51005663D01*
X212215185Y-51005668D01*
X212210180Y-51020772D01*
X212160001Y-51172203D01*
X212160001Y-51172204D01*
X212160000Y-51172204D01*
X212149500Y-51274983D01*
X207589501Y-51274983D01*
X207551095Y-51156782D01*
X207454620Y-50967442D01*
X207329727Y-50795540D01*
X207329723Y-50795535D01*
X207179464Y-50645276D01*
X207179459Y-50645272D01*
X207007557Y-50520379D01*
X206818215Y-50423903D01*
X206616124Y-50358241D01*
X206550000Y-50347768D01*
X206550000Y-51391988D01*
X206492993Y-51359075D01*
X206365826Y-51325000D01*
X206234174Y-51325000D01*
X206107007Y-51359075D01*
X206050000Y-51391988D01*
X206050000Y-50347768D01*
X206049999Y-50347768D01*
X205983875Y-50358241D01*
X205781784Y-50423903D01*
X205592442Y-50520379D01*
X205420541Y-50645271D01*
X205281668Y-50784144D01*
X205220345Y-50817628D01*
X205150653Y-50812644D01*
X205094720Y-50770772D01*
X205088448Y-50761558D01*
X204992712Y-50606344D01*
X204868657Y-50482289D01*
X204868656Y-50482288D01*
X204719334Y-50390186D01*
X204552797Y-50335001D01*
X204552795Y-50335000D01*
X204450010Y-50324500D01*
X203149998Y-50324500D01*
X203149981Y-50324501D01*
X203047203Y-50335000D01*
X203047200Y-50335001D01*
X202880668Y-50390185D01*
X202880663Y-50390187D01*
X202731342Y-50482289D01*
X202607289Y-50606342D01*
X202515187Y-50755663D01*
X202515185Y-50755668D01*
X202500653Y-50799523D01*
X202460001Y-50922203D01*
X202460001Y-50922204D01*
X202460000Y-50922204D01*
X202449500Y-51024983D01*
X197375500Y-51024983D01*
X197375499Y-50099992D01*
X197364999Y-49997203D01*
X197309814Y-49830666D01*
X197217712Y-49681344D01*
X197093656Y-49557288D01*
X196944334Y-49465186D01*
X196944333Y-49465185D01*
X196938878Y-49461821D01*
X196892154Y-49409873D01*
X196880931Y-49340910D01*
X196908775Y-49276828D01*
X196916272Y-49268623D01*
X197055104Y-49129792D01*
X197180051Y-48957816D01*
X197276557Y-48768412D01*
X197342246Y-48566243D01*
X197375500Y-48356287D01*
X197375500Y-48143713D01*
X197342246Y-47933757D01*
X197276557Y-47731588D01*
X197180051Y-47542184D01*
X197180049Y-47542181D01*
X197180048Y-47542179D01*
X197055109Y-47370213D01*
X196904790Y-47219894D01*
X196904785Y-47219890D01*
X196739781Y-47100008D01*
X196697115Y-47044678D01*
X196691136Y-46975065D01*
X196723741Y-46913270D01*
X196739781Y-46899371D01*
X196904466Y-46779721D01*
X197054723Y-46629464D01*
X197054727Y-46629459D01*
X197179620Y-46457557D01*
X197276095Y-46268217D01*
X197341757Y-46066129D01*
X197341757Y-46066126D01*
X197352231Y-46000000D01*
X196304146Y-46000000D01*
X196342630Y-45933343D01*
X196375000Y-45812535D01*
X196375000Y-45687465D01*
X196342630Y-45566657D01*
X196304146Y-45500000D01*
X197352231Y-45500000D01*
X197341757Y-45433873D01*
X197341757Y-45433870D01*
X197276095Y-45231782D01*
X197179620Y-45042442D01*
X197160888Y-45016660D01*
X236846892Y-45016660D01*
X236846892Y-45016661D01*
X236860692Y-45025333D01*
X236860691Y-45025333D01*
X237030861Y-45084878D01*
X237209997Y-45105062D01*
X237210003Y-45105062D01*
X237389138Y-45084878D01*
X237389141Y-45084877D01*
X237559305Y-45025334D01*
X237559306Y-45025334D01*
X237573106Y-45016661D01*
X237573106Y-45016660D01*
X237946892Y-45016660D01*
X237946892Y-45016661D01*
X237960692Y-45025333D01*
X237960691Y-45025333D01*
X238130861Y-45084878D01*
X238309997Y-45105062D01*
X238310003Y-45105062D01*
X238489138Y-45084878D01*
X238489141Y-45084877D01*
X238659305Y-45025334D01*
X238659306Y-45025334D01*
X238673106Y-45016661D01*
X238673106Y-45016660D01*
X238310001Y-44653553D01*
X238310000Y-44653553D01*
X237946892Y-45016660D01*
X237573106Y-45016660D01*
X237210001Y-44653553D01*
X237210000Y-44653553D01*
X236846892Y-45016660D01*
X197160888Y-45016660D01*
X197054727Y-44870540D01*
X197054723Y-44870535D01*
X196904464Y-44720276D01*
X196904459Y-44720272D01*
X196732557Y-44595379D01*
X196543217Y-44498904D01*
X196443979Y-44466660D01*
X236296892Y-44466660D01*
X236296892Y-44466661D01*
X236310692Y-44475333D01*
X236310699Y-44475336D01*
X236383205Y-44500708D01*
X236439981Y-44541430D01*
X236459291Y-44576793D01*
X236484664Y-44649302D01*
X236493338Y-44663107D01*
X236856446Y-44300000D01*
X236836555Y-44280109D01*
X237110000Y-44280109D01*
X237110000Y-44319891D01*
X237125224Y-44356645D01*
X237153355Y-44384776D01*
X237190109Y-44400000D01*
X237229891Y-44400000D01*
X237266645Y-44384776D01*
X237294776Y-44356645D01*
X237310000Y-44319891D01*
X237310000Y-44299999D01*
X237563553Y-44299999D01*
X237760000Y-44496446D01*
X237956446Y-44300000D01*
X237936555Y-44280109D01*
X238210000Y-44280109D01*
X238210000Y-44319891D01*
X238225224Y-44356645D01*
X238253355Y-44384776D01*
X238290109Y-44400000D01*
X238329891Y-44400000D01*
X238366645Y-44384776D01*
X238394776Y-44356645D01*
X238410000Y-44319891D01*
X238410000Y-44300000D01*
X238663553Y-44300000D01*
X239026660Y-44663106D01*
X239026661Y-44663106D01*
X239035334Y-44649306D01*
X239035334Y-44649305D01*
X239060707Y-44576795D01*
X239101429Y-44520019D01*
X239136795Y-44500707D01*
X239209305Y-44475334D01*
X239209306Y-44475334D01*
X239223106Y-44466661D01*
X239223106Y-44466660D01*
X238860000Y-44103553D01*
X238794241Y-44169313D01*
X238794240Y-44169314D01*
X238663553Y-44300000D01*
X238410000Y-44300000D01*
X238410000Y-44280109D01*
X238394776Y-44243355D01*
X238366645Y-44215224D01*
X238329891Y-44200000D01*
X238290109Y-44200000D01*
X238253355Y-44215224D01*
X238225224Y-44243355D01*
X238210000Y-44280109D01*
X237936555Y-44280109D01*
X237825760Y-44169314D01*
X237760000Y-44103553D01*
X237694241Y-44169313D01*
X237694240Y-44169314D01*
X237563553Y-44299999D01*
X237310000Y-44299999D01*
X237310000Y-44280109D01*
X237294776Y-44243355D01*
X237266645Y-44215224D01*
X237229891Y-44200000D01*
X237190109Y-44200000D01*
X237153355Y-44215224D01*
X237125224Y-44243355D01*
X237110000Y-44280109D01*
X236836555Y-44280109D01*
X236659999Y-44103553D01*
X236659998Y-44103553D01*
X236296892Y-44466660D01*
X196443979Y-44466660D01*
X196341128Y-44433242D01*
X196150000Y-44402969D01*
X196150000Y-45345854D01*
X196083343Y-45307370D01*
X195962535Y-45275000D01*
X195837465Y-45275000D01*
X195716657Y-45307370D01*
X195650000Y-45345854D01*
X195650000Y-44402969D01*
X195458872Y-44433242D01*
X195458869Y-44433242D01*
X195256782Y-44498904D01*
X195067442Y-44595379D01*
X194895540Y-44720272D01*
X194895535Y-44720276D01*
X194745276Y-44870535D01*
X194745272Y-44870540D01*
X194620379Y-45042442D01*
X194523904Y-45231782D01*
X194458242Y-45433870D01*
X194458242Y-45433873D01*
X194447769Y-45500000D01*
X195495854Y-45500000D01*
X195457370Y-45566657D01*
X195425000Y-45687465D01*
X195425000Y-45812535D01*
X195457370Y-45933343D01*
X195495854Y-46000000D01*
X194447769Y-46000000D01*
X194458242Y-46066126D01*
X194458242Y-46066129D01*
X194523904Y-46268217D01*
X194620379Y-46457557D01*
X194745272Y-46629459D01*
X194745276Y-46629464D01*
X194895535Y-46779723D01*
X194895540Y-46779727D01*
X195060218Y-46899372D01*
X195102884Y-46954701D01*
X195108863Y-47024315D01*
X195076258Y-47086110D01*
X195060218Y-47100008D01*
X194895214Y-47219890D01*
X194895209Y-47219894D01*
X194744890Y-47370213D01*
X194619951Y-47542179D01*
X194523444Y-47731585D01*
X194457753Y-47933760D01*
X194424500Y-48143713D01*
X190750500Y-48143713D01*
X190750500Y-43749997D01*
X235854938Y-43749997D01*
X235854938Y-43750002D01*
X235875121Y-43929138D01*
X235934665Y-44099304D01*
X235943338Y-44113107D01*
X236306446Y-43750000D01*
X236306446Y-43749999D01*
X236286556Y-43730109D01*
X236560000Y-43730109D01*
X236560000Y-43769891D01*
X236575224Y-43806645D01*
X236603355Y-43834776D01*
X236640109Y-43850000D01*
X236679891Y-43850000D01*
X236716645Y-43834776D01*
X236744776Y-43806645D01*
X236760000Y-43769891D01*
X236760000Y-43750000D01*
X237013553Y-43750000D01*
X237059645Y-43796091D01*
X237210000Y-43946446D01*
X237406446Y-43750000D01*
X237386555Y-43730109D01*
X237660000Y-43730109D01*
X237660000Y-43769891D01*
X237675224Y-43806645D01*
X237703355Y-43834776D01*
X237740109Y-43850000D01*
X237779891Y-43850000D01*
X237816645Y-43834776D01*
X237844776Y-43806645D01*
X237860000Y-43769891D01*
X237860000Y-43750000D01*
X238113553Y-43750000D01*
X238159645Y-43796091D01*
X238310000Y-43946446D01*
X238506446Y-43750000D01*
X238486555Y-43730109D01*
X238760000Y-43730109D01*
X238760000Y-43769891D01*
X238775224Y-43806645D01*
X238803355Y-43834776D01*
X238840109Y-43850000D01*
X238879891Y-43850000D01*
X238916645Y-43834776D01*
X238944776Y-43806645D01*
X238960000Y-43769891D01*
X238960000Y-43750000D01*
X239213553Y-43750000D01*
X239576660Y-44113106D01*
X239576661Y-44113106D01*
X239585334Y-44099306D01*
X239585334Y-44099305D01*
X239644877Y-43929141D01*
X239644878Y-43929138D01*
X239665062Y-43750002D01*
X239665062Y-43749997D01*
X239644878Y-43570861D01*
X239585333Y-43400692D01*
X239576661Y-43386892D01*
X239576660Y-43386892D01*
X239213553Y-43750000D01*
X238960000Y-43750000D01*
X238960000Y-43730109D01*
X238944776Y-43693355D01*
X238916645Y-43665224D01*
X238879891Y-43650000D01*
X238840109Y-43650000D01*
X238803355Y-43665224D01*
X238775224Y-43693355D01*
X238760000Y-43730109D01*
X238486555Y-43730109D01*
X238375760Y-43619314D01*
X238310000Y-43553553D01*
X238244241Y-43619313D01*
X238244240Y-43619314D01*
X238113553Y-43750000D01*
X237860000Y-43750000D01*
X237860000Y-43730109D01*
X237844776Y-43693355D01*
X237816645Y-43665224D01*
X237779891Y-43650000D01*
X237740109Y-43650000D01*
X237703355Y-43665224D01*
X237675224Y-43693355D01*
X237660000Y-43730109D01*
X237386555Y-43730109D01*
X237275760Y-43619314D01*
X237210000Y-43553553D01*
X237144241Y-43619313D01*
X237144240Y-43619314D01*
X237013553Y-43750000D01*
X236760000Y-43750000D01*
X236760000Y-43730109D01*
X236744776Y-43693355D01*
X236716645Y-43665224D01*
X236679891Y-43650000D01*
X236640109Y-43650000D01*
X236603355Y-43665224D01*
X236575224Y-43693355D01*
X236560000Y-43730109D01*
X236286556Y-43730109D01*
X235943338Y-43386891D01*
X235943337Y-43386891D01*
X235934667Y-43400691D01*
X235934662Y-43400701D01*
X235875122Y-43570858D01*
X235875121Y-43570861D01*
X235854938Y-43749997D01*
X190750500Y-43749997D01*
X190750500Y-43200000D01*
X236463553Y-43200000D01*
X236463553Y-43200001D01*
X236659998Y-43396446D01*
X236659999Y-43396446D01*
X236810355Y-43246091D01*
X236856446Y-43200000D01*
X236836555Y-43180109D01*
X237110000Y-43180109D01*
X237110000Y-43219891D01*
X237125224Y-43256645D01*
X237153355Y-43284776D01*
X237190109Y-43300000D01*
X237229891Y-43300000D01*
X237266645Y-43284776D01*
X237294776Y-43256645D01*
X237310000Y-43219891D01*
X237310000Y-43200000D01*
X237563553Y-43200000D01*
X237609645Y-43246091D01*
X237760000Y-43396446D01*
X237956446Y-43200000D01*
X237936555Y-43180109D01*
X238210000Y-43180109D01*
X238210000Y-43219891D01*
X238225224Y-43256645D01*
X238253355Y-43284776D01*
X238290109Y-43300000D01*
X238329891Y-43300000D01*
X238366645Y-43284776D01*
X238394776Y-43256645D01*
X238410000Y-43219891D01*
X238410000Y-43200000D01*
X238663553Y-43200000D01*
X238709645Y-43246091D01*
X238860000Y-43396446D01*
X239056446Y-43200000D01*
X238860000Y-43003553D01*
X238794241Y-43069313D01*
X238794240Y-43069314D01*
X238663553Y-43200000D01*
X238410000Y-43200000D01*
X238410000Y-43180109D01*
X238394776Y-43143355D01*
X238366645Y-43115224D01*
X238329891Y-43100000D01*
X238290109Y-43100000D01*
X238253355Y-43115224D01*
X238225224Y-43143355D01*
X238210000Y-43180109D01*
X237936555Y-43180109D01*
X237825760Y-43069314D01*
X237760000Y-43003553D01*
X237694241Y-43069313D01*
X237694240Y-43069314D01*
X237563553Y-43200000D01*
X237310000Y-43200000D01*
X237310000Y-43180109D01*
X237294776Y-43143355D01*
X237266645Y-43115224D01*
X237229891Y-43100000D01*
X237190109Y-43100000D01*
X237153355Y-43115224D01*
X237125224Y-43143355D01*
X237110000Y-43180109D01*
X236836555Y-43180109D01*
X236659999Y-43003553D01*
X236463553Y-43200000D01*
X190750500Y-43200000D01*
X190750500Y-42649997D01*
X235854938Y-42649997D01*
X235854938Y-42650002D01*
X235875121Y-42829138D01*
X235934665Y-42999304D01*
X235943338Y-43013107D01*
X236306446Y-42650000D01*
X236306446Y-42649999D01*
X236286556Y-42630109D01*
X236560000Y-42630109D01*
X236560000Y-42669891D01*
X236575224Y-42706645D01*
X236603355Y-42734776D01*
X236640109Y-42750000D01*
X236679891Y-42750000D01*
X236716645Y-42734776D01*
X236744776Y-42706645D01*
X236760000Y-42669891D01*
X236760000Y-42650000D01*
X237013553Y-42650000D01*
X237059645Y-42696091D01*
X237210000Y-42846446D01*
X237406446Y-42650000D01*
X237386555Y-42630109D01*
X237660000Y-42630109D01*
X237660000Y-42669891D01*
X237675224Y-42706645D01*
X237703355Y-42734776D01*
X237740109Y-42750000D01*
X237779891Y-42750000D01*
X237816645Y-42734776D01*
X237844776Y-42706645D01*
X237860000Y-42669891D01*
X237860000Y-42650000D01*
X238113553Y-42650000D01*
X238159645Y-42696091D01*
X238310000Y-42846446D01*
X238506446Y-42650000D01*
X238486555Y-42630109D01*
X238760000Y-42630109D01*
X238760000Y-42669891D01*
X238775224Y-42706645D01*
X238803355Y-42734776D01*
X238840109Y-42750000D01*
X238879891Y-42750000D01*
X238916645Y-42734776D01*
X238944776Y-42706645D01*
X238960000Y-42669891D01*
X238960000Y-42650000D01*
X239213553Y-42650000D01*
X239576660Y-43013106D01*
X239576661Y-43013106D01*
X239585334Y-42999306D01*
X239585334Y-42999305D01*
X239644877Y-42829141D01*
X239644878Y-42829138D01*
X239665062Y-42650002D01*
X239665062Y-42649997D01*
X239644878Y-42470861D01*
X239585333Y-42300692D01*
X239576661Y-42286892D01*
X239576660Y-42286892D01*
X239213553Y-42650000D01*
X238960000Y-42650000D01*
X238960000Y-42630109D01*
X238944776Y-42593355D01*
X238916645Y-42565224D01*
X238879891Y-42550000D01*
X238840109Y-42550000D01*
X238803355Y-42565224D01*
X238775224Y-42593355D01*
X238760000Y-42630109D01*
X238486555Y-42630109D01*
X238375760Y-42519314D01*
X238310000Y-42453553D01*
X238244241Y-42519313D01*
X238244240Y-42519314D01*
X238113553Y-42650000D01*
X237860000Y-42650000D01*
X237860000Y-42630109D01*
X237844776Y-42593355D01*
X237816645Y-42565224D01*
X237779891Y-42550000D01*
X237740109Y-42550000D01*
X237703355Y-42565224D01*
X237675224Y-42593355D01*
X237660000Y-42630109D01*
X237386555Y-42630109D01*
X237275760Y-42519314D01*
X237210000Y-42453553D01*
X237144241Y-42519313D01*
X237144240Y-42519314D01*
X237013553Y-42650000D01*
X236760000Y-42650000D01*
X236760000Y-42630109D01*
X236744776Y-42593355D01*
X236716645Y-42565224D01*
X236679891Y-42550000D01*
X236640109Y-42550000D01*
X236603355Y-42565224D01*
X236575224Y-42593355D01*
X236560000Y-42630109D01*
X236286556Y-42630109D01*
X235943338Y-42286891D01*
X235943337Y-42286891D01*
X235934667Y-42300691D01*
X235934662Y-42300701D01*
X235875122Y-42470858D01*
X235875121Y-42470861D01*
X235854938Y-42649997D01*
X190750500Y-42649997D01*
X190750500Y-41933338D01*
X236296891Y-41933338D01*
X236659998Y-42296446D01*
X236808395Y-42148051D01*
X236856446Y-42099998D01*
X236836557Y-42080109D01*
X237110000Y-42080109D01*
X237110000Y-42119891D01*
X237125224Y-42156645D01*
X237153355Y-42184776D01*
X237190109Y-42200000D01*
X237229891Y-42200000D01*
X237266645Y-42184776D01*
X237294776Y-42156645D01*
X237310000Y-42119891D01*
X237310000Y-42099999D01*
X237563553Y-42099999D01*
X237760000Y-42296446D01*
X237908393Y-42148053D01*
X237956446Y-42099998D01*
X237936557Y-42080109D01*
X238210000Y-42080109D01*
X238210000Y-42119891D01*
X238225224Y-42156645D01*
X238253355Y-42184776D01*
X238290109Y-42200000D01*
X238329891Y-42200000D01*
X238366645Y-42184776D01*
X238394776Y-42156645D01*
X238410000Y-42119891D01*
X238410000Y-42099998D01*
X238663553Y-42099998D01*
X238663553Y-42099999D01*
X238860000Y-42296446D01*
X238860001Y-42296446D01*
X239223107Y-41933338D01*
X239209302Y-41924664D01*
X239136793Y-41899291D01*
X239080017Y-41858569D01*
X239060708Y-41823205D01*
X239035336Y-41750699D01*
X239035333Y-41750692D01*
X239026661Y-41736892D01*
X239026660Y-41736892D01*
X238663553Y-42099998D01*
X238410000Y-42099998D01*
X238410000Y-42080109D01*
X238394776Y-42043355D01*
X238366645Y-42015224D01*
X238329891Y-42000000D01*
X238290109Y-42000000D01*
X238253355Y-42015224D01*
X238225224Y-42043355D01*
X238210000Y-42080109D01*
X237936557Y-42080109D01*
X237760001Y-41903553D01*
X237563553Y-42099999D01*
X237310000Y-42099999D01*
X237310000Y-42080109D01*
X237294776Y-42043355D01*
X237266645Y-42015224D01*
X237229891Y-42000000D01*
X237190109Y-42000000D01*
X237153355Y-42015224D01*
X237125224Y-42043355D01*
X237110000Y-42080109D01*
X236836557Y-42080109D01*
X236493338Y-41736891D01*
X236484664Y-41750695D01*
X236484659Y-41750705D01*
X236459291Y-41823205D01*
X236418569Y-41879981D01*
X236383205Y-41899291D01*
X236310705Y-41924659D01*
X236310695Y-41924664D01*
X236296891Y-41933338D01*
X190750500Y-41933338D01*
X190750500Y-41383337D01*
X236846891Y-41383337D01*
X236846891Y-41383338D01*
X237210000Y-41746446D01*
X237210001Y-41746446D01*
X237573107Y-41383338D01*
X237573105Y-41383337D01*
X237946891Y-41383337D01*
X237946891Y-41383338D01*
X238310000Y-41746446D01*
X238310001Y-41746446D01*
X238673107Y-41383338D01*
X238659304Y-41374665D01*
X238489138Y-41315121D01*
X238310003Y-41294938D01*
X238309997Y-41294938D01*
X238130861Y-41315121D01*
X238130858Y-41315122D01*
X237960701Y-41374662D01*
X237960691Y-41374667D01*
X237946891Y-41383337D01*
X237573105Y-41383337D01*
X237559304Y-41374665D01*
X237389138Y-41315121D01*
X237210003Y-41294938D01*
X237209997Y-41294938D01*
X237030861Y-41315121D01*
X237030858Y-41315122D01*
X236860701Y-41374662D01*
X236860691Y-41374667D01*
X236846891Y-41383337D01*
X190750500Y-41383337D01*
X190750500Y-33499983D01*
X195424500Y-33499983D01*
X195424500Y-34800001D01*
X195424501Y-34800018D01*
X195435000Y-34902796D01*
X195435001Y-34902799D01*
X195490185Y-35069331D01*
X195490187Y-35069336D01*
X195582289Y-35218657D01*
X195706344Y-35342712D01*
X195861120Y-35438178D01*
X195907845Y-35490126D01*
X195919068Y-35559088D01*
X195891224Y-35623171D01*
X195883706Y-35631398D01*
X195744889Y-35770215D01*
X195619951Y-35942179D01*
X195523444Y-36131585D01*
X195457753Y-36333760D01*
X195424500Y-36543713D01*
X195424500Y-36756286D01*
X195457753Y-36966239D01*
X195523444Y-37168414D01*
X195619951Y-37357820D01*
X195744890Y-37529786D01*
X195895209Y-37680105D01*
X195895214Y-37680109D01*
X196060218Y-37799991D01*
X196102884Y-37855320D01*
X196108863Y-37924934D01*
X196076258Y-37986729D01*
X196060218Y-38000627D01*
X195895540Y-38120272D01*
X195895535Y-38120276D01*
X195745276Y-38270535D01*
X195745272Y-38270540D01*
X195620379Y-38442442D01*
X195523904Y-38631782D01*
X195458242Y-38833870D01*
X195458242Y-38833873D01*
X195447769Y-38900000D01*
X196495854Y-38900000D01*
X196457370Y-38966657D01*
X196425000Y-39087465D01*
X196425000Y-39212535D01*
X196457370Y-39333343D01*
X196495854Y-39400000D01*
X195447769Y-39400000D01*
X195458242Y-39466126D01*
X195458242Y-39466129D01*
X195523904Y-39668217D01*
X195620379Y-39857557D01*
X195745272Y-40029459D01*
X195745276Y-40029464D01*
X195895535Y-40179723D01*
X195895540Y-40179727D01*
X196067442Y-40304620D01*
X196256782Y-40401095D01*
X196458872Y-40466757D01*
X196650000Y-40497029D01*
X196650000Y-39554145D01*
X196716657Y-39592630D01*
X196837465Y-39625000D01*
X196962535Y-39625000D01*
X197083343Y-39592630D01*
X197150000Y-39554145D01*
X197150000Y-40497028D01*
X197341127Y-40466757D01*
X197543217Y-40401095D01*
X197732557Y-40304620D01*
X197904459Y-40179727D01*
X197904464Y-40179723D01*
X197934191Y-40149996D01*
X242794435Y-40149996D01*
X242794435Y-40150003D01*
X242814630Y-40329249D01*
X242814631Y-40329254D01*
X242874211Y-40499523D01*
X242970184Y-40652262D01*
X243097738Y-40779816D01*
X243250478Y-40875789D01*
X243420745Y-40935368D01*
X243467823Y-40940672D01*
X243532236Y-40967737D01*
X243541621Y-40976211D01*
X250188181Y-47622771D01*
X250221666Y-47684094D01*
X250224500Y-47710452D01*
X250224500Y-50211604D01*
X250246953Y-50324492D01*
X250248537Y-50332454D01*
X250295685Y-50446281D01*
X250295687Y-50446284D01*
X250319745Y-50482288D01*
X250319747Y-50482292D01*
X250337075Y-50508226D01*
X250357192Y-50563231D01*
X250364630Y-50629249D01*
X250424210Y-50799521D01*
X250484374Y-50895271D01*
X250520184Y-50952262D01*
X250647738Y-51079816D01*
X250738080Y-51136582D01*
X250794772Y-51172204D01*
X250800478Y-51175789D01*
X250970745Y-51235368D01*
X250970750Y-51235369D01*
X251149996Y-51255565D01*
X251150000Y-51255565D01*
X251150004Y-51255565D01*
X251329249Y-51235369D01*
X251329252Y-51235368D01*
X251329255Y-51235368D01*
X251499522Y-51175789D01*
X251652262Y-51079816D01*
X251779816Y-50952262D01*
X251875789Y-50799522D01*
X251935368Y-50629255D01*
X251937736Y-50608241D01*
X251955565Y-50450003D01*
X251955565Y-50449996D01*
X251935369Y-50270750D01*
X251935368Y-50270745D01*
X251875788Y-50100476D01*
X251836582Y-50038080D01*
X251779816Y-49947738D01*
X251652262Y-49820184D01*
X251533526Y-49745577D01*
X251487237Y-49693244D01*
X251475500Y-49640585D01*
X251475500Y-47338393D01*
X251475499Y-47338389D01*
X251451930Y-47219896D01*
X251451463Y-47217548D01*
X251404311Y-47103714D01*
X251404310Y-47103713D01*
X251404307Y-47103707D01*
X251335859Y-47001268D01*
X251309656Y-46975065D01*
X251248733Y-46914142D01*
X251248732Y-46914141D01*
X244426210Y-40091620D01*
X244392726Y-40030298D01*
X244390673Y-40017838D01*
X244385368Y-39970745D01*
X244325789Y-39800478D01*
X244229816Y-39647738D01*
X244102262Y-39520184D01*
X243949523Y-39424211D01*
X243779254Y-39364631D01*
X243779249Y-39364630D01*
X243600004Y-39344435D01*
X243599996Y-39344435D01*
X243420750Y-39364630D01*
X243420745Y-39364631D01*
X243250476Y-39424211D01*
X243097737Y-39520184D01*
X242970184Y-39647737D01*
X242874211Y-39800476D01*
X242814631Y-39970745D01*
X242814630Y-39970750D01*
X242794435Y-40149996D01*
X197934191Y-40149996D01*
X198054723Y-40029464D01*
X198054727Y-40029459D01*
X198179620Y-39857557D01*
X198276095Y-39668217D01*
X198341757Y-39466129D01*
X198341757Y-39466126D01*
X198352231Y-39400000D01*
X197304146Y-39400000D01*
X197342630Y-39333343D01*
X197375000Y-39212535D01*
X197375000Y-39087465D01*
X197342630Y-38966657D01*
X197304146Y-38900000D01*
X198352231Y-38900000D01*
X198341757Y-38833873D01*
X198341757Y-38833870D01*
X198276095Y-38631782D01*
X198179620Y-38442442D01*
X198054727Y-38270540D01*
X198054723Y-38270535D01*
X197904464Y-38120276D01*
X197904459Y-38120272D01*
X197739781Y-38000627D01*
X197697115Y-37945297D01*
X197691136Y-37875684D01*
X197723741Y-37813889D01*
X197739776Y-37799994D01*
X197904792Y-37680104D01*
X198055104Y-37529792D01*
X198055106Y-37529788D01*
X198055109Y-37529786D01*
X198180048Y-37357820D01*
X198180047Y-37357820D01*
X198180051Y-37357816D01*
X198276557Y-37168412D01*
X198342246Y-36966243D01*
X198375500Y-36756287D01*
X198375500Y-36543713D01*
X198342246Y-36333757D01*
X198276557Y-36131588D01*
X198180051Y-35942184D01*
X198180049Y-35942181D01*
X198180048Y-35942179D01*
X198055109Y-35770213D01*
X197916294Y-35631398D01*
X197882809Y-35570075D01*
X197887793Y-35500383D01*
X197929665Y-35444450D01*
X197938879Y-35438178D01*
X197944331Y-35434814D01*
X197944334Y-35434814D01*
X198093656Y-35342712D01*
X198217712Y-35218656D01*
X198309814Y-35069334D01*
X198364999Y-34902797D01*
X198375500Y-34800009D01*
X198375499Y-33499992D01*
X198364999Y-33397203D01*
X198309814Y-33230666D01*
X198217712Y-33081344D01*
X198093656Y-32957288D01*
X197951327Y-32869499D01*
X197944336Y-32865187D01*
X197944331Y-32865185D01*
X197942862Y-32864698D01*
X197777797Y-32810001D01*
X197777795Y-32810000D01*
X197675010Y-32799500D01*
X196124998Y-32799500D01*
X196124981Y-32799501D01*
X196022203Y-32810000D01*
X196022200Y-32810001D01*
X195855668Y-32865185D01*
X195855663Y-32865187D01*
X195706342Y-32957289D01*
X195582289Y-33081342D01*
X195490187Y-33230663D01*
X195490185Y-33230668D01*
X195476986Y-33270500D01*
X195435001Y-33397203D01*
X195435001Y-33397204D01*
X195435000Y-33397204D01*
X195424500Y-33499983D01*
X190750500Y-33499983D01*
X190750500Y-31849996D01*
X209644435Y-31849996D01*
X209644435Y-31850003D01*
X209664630Y-32029249D01*
X209664631Y-32029254D01*
X209724211Y-32199523D01*
X209820184Y-32352262D01*
X209947738Y-32479816D01*
X210038080Y-32536582D01*
X210077953Y-32561636D01*
X210100478Y-32575789D01*
X210270745Y-32635368D01*
X210270750Y-32635369D01*
X210449996Y-32655565D01*
X210450000Y-32655565D01*
X210450004Y-32655565D01*
X210629249Y-32635369D01*
X210629252Y-32635368D01*
X210629255Y-32635368D01*
X210799522Y-32575789D01*
X210952262Y-32479816D01*
X211079816Y-32352262D01*
X211175789Y-32199522D01*
X211235368Y-32029255D01*
X211235369Y-32029249D01*
X211236917Y-32022468D01*
X211239886Y-32023145D01*
X211261736Y-31971181D01*
X211319340Y-31931639D01*
X211357872Y-31925500D01*
X211955145Y-31925500D01*
X212021117Y-31944506D01*
X212145192Y-32022468D01*
X212150478Y-32025789D01*
X212320745Y-32085368D01*
X212320750Y-32085369D01*
X212499996Y-32105565D01*
X212500000Y-32105565D01*
X212500004Y-32105565D01*
X212679249Y-32085369D01*
X212679252Y-32085368D01*
X212679255Y-32085368D01*
X212849522Y-32025789D01*
X213002262Y-31929816D01*
X213129816Y-31802262D01*
X213225789Y-31649522D01*
X213285368Y-31479255D01*
X213285369Y-31479249D01*
X213305565Y-31300003D01*
X213305565Y-31299996D01*
X213285369Y-31120750D01*
X213285368Y-31120745D01*
X213265733Y-31064632D01*
X213225789Y-30950478D01*
X213129816Y-30797738D01*
X213002262Y-30670184D01*
X212985244Y-30659491D01*
X212849523Y-30574211D01*
X212679254Y-30514631D01*
X212679249Y-30514630D01*
X212500004Y-30494435D01*
X212499996Y-30494435D01*
X212320750Y-30514630D01*
X212320745Y-30514631D01*
X212150476Y-30574211D01*
X212021117Y-30655494D01*
X211955145Y-30674500D01*
X210938388Y-30674500D01*
X210817555Y-30698535D01*
X210817547Y-30698537D01*
X210703716Y-30745687D01*
X210625818Y-30797738D01*
X210601263Y-30814144D01*
X210391620Y-31023787D01*
X210330297Y-31057272D01*
X210317825Y-31059326D01*
X210270750Y-31064630D01*
X210100478Y-31124210D01*
X209947737Y-31220184D01*
X209820184Y-31347737D01*
X209724211Y-31500476D01*
X209664631Y-31670745D01*
X209664630Y-31670750D01*
X209644435Y-31849996D01*
X190750500Y-31849996D01*
X190750500Y-27815550D01*
X190770185Y-27748511D01*
X190822989Y-27702756D01*
X190892147Y-27692812D01*
X190955703Y-27721837D01*
X190993477Y-27780615D01*
X190996302Y-27792307D01*
X191048070Y-28063685D01*
X191050956Y-28078812D01*
X191110360Y-28261639D01*
X191149077Y-28380796D01*
X191284274Y-28668105D01*
X191284276Y-28668108D01*
X191284277Y-28668110D01*
X191454411Y-28936199D01*
X191454414Y-28936203D01*
X191454415Y-28936204D01*
X191468929Y-28953749D01*
X191656817Y-29180866D01*
X191888283Y-29398227D01*
X191888293Y-29398235D01*
X192145160Y-29584860D01*
X192145178Y-29584872D01*
X192423425Y-29737839D01*
X192423433Y-29737843D01*
X192711602Y-29851936D01*
X192718656Y-29854729D01*
X193026210Y-29933696D01*
X193026212Y-29933696D01*
X193026215Y-29933697D01*
X193341223Y-29973492D01*
X193341232Y-29973492D01*
X193341235Y-29973493D01*
X193341237Y-29973493D01*
X193658763Y-29973493D01*
X193658765Y-29973493D01*
X193658768Y-29973492D01*
X193658776Y-29973492D01*
X193973784Y-29933697D01*
X193973785Y-29933696D01*
X193973790Y-29933696D01*
X194281344Y-29854729D01*
X194457793Y-29784868D01*
X194576566Y-29737843D01*
X194576570Y-29737840D01*
X194576575Y-29737839D01*
X194830514Y-29598235D01*
X194854821Y-29584872D01*
X194854822Y-29584871D01*
X194854828Y-29584868D01*
X195111715Y-29398229D01*
X195343184Y-29180865D01*
X195545585Y-28936204D01*
X195715726Y-28668105D01*
X195850923Y-28380796D01*
X195949045Y-28078808D01*
X196008544Y-27766903D01*
X196009701Y-27748511D01*
X196028482Y-27450005D01*
X196028482Y-27449994D01*
X196008545Y-27133107D01*
X196008544Y-27133100D01*
X196008544Y-27133097D01*
X195949045Y-26821192D01*
X195850923Y-26519204D01*
X195715726Y-26231895D01*
X195644428Y-26119547D01*
X195545588Y-25963800D01*
X195537306Y-25953789D01*
X195343184Y-25719135D01*
X195111715Y-25501771D01*
X195074617Y-25474817D01*
X195031952Y-25419489D01*
X195025973Y-25349875D01*
X195058578Y-25288080D01*
X195119417Y-25253723D01*
X195147503Y-25250500D01*
X222676000Y-25250500D01*
X222743039Y-25270185D01*
G37*
%TD.AperFunction*%
%TD*%
M02*
